<svg width="186" height="33" viewBox="0 0 186 33" fill="none" xmlns="http://www.w3.org/2000/svg">
<path d="M24.44 28V18.04C19.56 18.04 15.04 18.2 12.2 20.8V17.72H27.48V26.08C25.76 28.28 23.24 29.92 20.24 30.68C12.8 32.88 5 28.28 2.92 20.68C0.88 13.08 5.4 5.24 13.04 3.24C21.84 0.799998 26.04 6.52 26.04 6.52V10.68C25.84 10.2 21.56 1.16 13.08 3.52C6.28 5.4 4.48 13.8 6.04 19.88C7.64 26 13.48 32.32 20.16 30.48C21.96 30.08 23.32 29.08 24.44 28ZM39.8506 3.16C47.3306 1.04 55.1306 5.68 57.0906 13.28C59.2106 20.76 54.6906 28.64 47.0906 30.64C39.5706 32.76 31.8506 28.24 29.7706 20.56C27.7706 12.96 32.2906 5.2 39.8506 3.16ZM39.8906 3.48C33.0906 5.24 31.3706 13.6 33.0106 19.72C34.6106 25.76 40.2506 32.16 47.0106 30.36C53.8506 28.6 55.5706 20.16 54.0106 14.08C52.3706 7.92 46.7706 1.56 39.8906 3.48ZM70.0225 3.16C77.5025 1.04 85.3025 5.68 87.2625 13.28C89.3825 20.76 84.8625 28.64 77.2625 30.64C69.7425 32.76 62.0225 28.24 59.9425 20.56C57.9425 12.96 62.4625 5.2 70.0225 3.16ZM70.0625 3.48C63.2625 5.24 61.5425 13.6 63.1825 19.72C64.7825 25.76 70.4225 32.16 77.1825 30.36C84.0225 28.6 85.7425 20.16 84.1825 14.08C82.5425 7.92 76.9425 1.56 70.0625 3.48ZM98.7544 31H89.6344V2.76H98.7544C106.394 2.76 112.754 9.04 112.754 16.92C112.754 24.76 106.394 31 98.7544 31ZM92.7544 3.04V30.68H98.7544C104.874 30.68 109.794 24.56 109.794 16.92C109.794 9.28 104.874 3.04 98.7544 3.04H92.7544ZM134.388 31H134.108L128.468 17.6L122.908 31H122.548L110.588 2.72H114.068L124.268 27L128.348 17.24L122.308 2.72H125.668L130.028 13.24L132.468 7.6C134.028 3.68 137.348 1.8 140.588 3.08C143.668 4.28 144.348 7.44 143.068 10.36L134.388 31ZM130.268 13.68L135.828 27L142.868 10.36C143.988 7.6 143.468 4.48 140.508 3.32C137.028 2.04 134.108 4.44 132.748 7.6L130.268 13.68ZM145.525 31V2.76H148.525V31H145.525ZM167.226 25.08L166.266 31H150.306V2.76H153.506V30.68H160.266C163.706 30.68 165.746 29.12 167.226 25.08ZM185.953 25.08L184.993 31H169.033V2.76H172.233V30.68H178.993C182.433 30.68 184.473 29.12 185.953 25.08Z" fill="black"/>
</svg>
