<svg width="24" height="24" viewBox="0 0 24 24" fill="none" xmlns="http://www.w3.org/2000/svg">
<path d="M0 12C0 5.37258 5.37258 0 12 0C18.6274 0 24 5.37258 24 12C24 18.6274 18.6274 24 12 24C5.37258 24 0 18.6274 0 12Z" fill="#05308C"/>
<path fill-rule="evenodd" clip-rule="evenodd" d="M18.0302 7.97001C18.1706 8.11064 18.2495 8.30126 18.2495 8.50001C18.2495 8.69876 18.1706 8.88939 18.0302 9.03001L11.0302 16.03C10.8895 16.1705 10.6989 16.2494 10.5002 16.2494C10.3014 16.2494 10.1108 16.1705 9.97015 16.03L5.97015 12.03C5.89647 11.9613 5.83736 11.8785 5.79637 11.7865C5.75538 11.6946 5.73334 11.5952 5.73156 11.4945C5.72979 11.3938 5.74831 11.2938 5.78603 11.2004C5.82375 11.107 5.8799 11.0222 5.95112 10.951C6.02233 10.8798 6.10717 10.8236 6.20056 10.7859C6.29394 10.7482 6.39397 10.7296 6.49468 10.7314C6.59538 10.7332 6.69469 10.7552 6.78669 10.7962C6.87869 10.8372 6.96149 10.8963 7.03015 10.97L10.5002 14.44L16.9702 7.97001C17.1108 7.82956 17.3014 7.75067 17.5002 7.75067C17.6989 7.75067 17.8895 7.82956 18.0302 7.97001Z" fill="white"/>
</svg>
