{
    "asset" : {
        "generator" : "Khronos glTF Blender I/O v3.3.27",
        "version" : "2.0"
    },
    "extensionsUsed" : [
        "KHR_materials_transmission",
        "KHR_materials_ior"
    ],
    "scene" : 0,
    "scenes" : [
        {
            "name" : "Scene",
            "nodes" : [
                0
            ]
        }
    ],
    "nodes" : [
        {
            "mesh" : 0,
            "name" : "Cross Joint"
        }
    ],
    "materials" : [
        {
            "doubleSided" : true,
            "extensions" : {
                "KHR_materials_transmission" : {
                    "transmissionFactor" : 0.5984252691268921
                },
                "KHR_materials_ior" : {
                    "ior" : 1.4500000476837158
                }
            },
            "name" : "plastic",
            "pbrMetallicRoughness" : {
                "baseColorFactor" : [
                    0,
                    0.008262538351118565,
                    0.15232475101947784,
                    1
                ],
                "metallicFactor" : 0.15748029947280884,
                "roughnessFactor" : 0.4133857786655426
            }
        }
    ],
    "meshes" : [
        {
            "name" : "Cross Joint",
            "primitives" : [
                {
                    "attributes" : {
                        "POSITION" : 0,
                        "NORMAL" : 1,
                        "TEXCOORD_0" : 2
                    },
                    "indices" : 3,
                    "material" : 0
                }
            ]
        }
    ],
    "accessors" : [
        {
            "bufferView" : 0,
            "componentType" : 5126,
            "count" : 683,
            "max" : [
                3,
                3,
                3
            ],
            "min" : [
                -3,
                -3,
                -3
            ],
            "type" : "VEC3"
        },
        {
            "bufferView" : 1,
            "componentType" : 5126,
            "count" : 683,
            "type" : "VEC3"
        },
        {
            "bufferView" : 2,
            "componentType" : 5126,
            "count" : 683,
            "type" : "VEC2"
        },
        {
            "bufferView" : 3,
            "componentType" : 5123,
            "count" : 3324,
            "type" : "SCALAR"
        }
    ],
    "bufferViews" : [
        {
            "buffer" : 0,
            "byteLength" : 8196,
            "byteOffset" : 0,
            "target" : 34962
        },
        {
            "buffer" : 0,
            "byteLength" : 8196,
            "byteOffset" : 8196,
            "target" : 34962
        },
        {
            "buffer" : 0,
            "byteLength" : 5464,
            "byteOffset" : 16392,
            "target" : 34962
        },
        {
            "buffer" : 0,
            "byteLength" : 6648,
            "byteOffset" : 21856,
            "target" : 34963
        }
    ],
    "buffers" : [
        {
            "byteLength" : 28504,
            "uri" : "\ud30c\uc774\ud504\ub77c\uc778.bin"
        }
    ]
}
